<?xml version="1.0" standalone="no"?>
<!DOCTYPE svg PUBLIC "-//W3C//DTD SVG 20010904//EN"
 "http://www.w3.org/TR/2001/REC-SVG-20010904/DTD/svg10.dtd">
<svg version="1.0" xmlns="http://www.w3.org/2000/svg"
 width="512.000000pt" height="512.000000pt" viewBox="0 0 512.000000 512.000000"
 preserveAspectRatio="xMidYMid meet">

<g transform="translate(0.000000,512.000000) scale(0.100000,-0.100000)"
fill="#000000" stroke="none">
<path d="M4410 3483 l0 -688 -510 510 -510 510 0 -318 0 -317 -480 0 -480 0 0
-190 0 -190 430 0 430 0 0 -300 0 -300 -430 0 -430 0 0 -190 0 -190 495 0 495
0 0 -320 0 -320 -852 0 -853 0 430 -428 c237 -235 468 -464 516 -509 l85 -82
32 32 c27 27 32 29 32 12 0 -15 11 -9 50 30 46 45 50 47 50 25 0 -22 4 -20 50
25 l50 49 0 -44 0 -44 50 49 c39 38 50 45 50 30 0 -15 11 -8 50 30 46 45 50
47 50 25 0 -22 4 -20 50 25 l50 49 0 -39 0 -39 50 49 c46 45 50 47 50 25 0
-22 4 -20 50 25 l50 49 0 -44 0 -44 50 49 c39 38 50 45 50 30 0 -15 11 -8 50
30 45 45 50 47 50 26 0 -23 1 -24 20 -6 19 17 20 17 20 -1 0 -13 18 -1 65 46
58 57 65 62 65 40 0 -22 6 -19 59 34 l60 59 7 -37 7 -38 48 48 c38 38 49 44
49 29 0 -15 11 -8 50 30 l50 49 0 -44 0 -44 50 49 50 49 0 -44 0 -44 48 47
c27 26 51 45 54 42 8 -8 155 175 225 280 219 328 346 668 405 1080 19 137 16
503 -6 650 -69 458 -247 864 -537 1225 -44 55 -82 100 -85 100 -2 0 -4 -309
-4 -687z"/>
</g>
</svg>
